HIERARCHY
ROOT Hips
{
	OFFSET 50.538200 -1.069106 96.817398
	CHANNELS 6 Xposition Yposition Zposition Xrotation Yrotation Zrotation
	JOINT spine
	{
		OFFSET 0.000000 -0.458068 7.965683
		CHANNELS 3 Xrotation Yrotation Zrotation
		JOINT spine1
		{
			OFFSET 0.000000 -0.000002 10.243103
			CHANNELS 3 Xrotation Yrotation Zrotation
			JOINT spine2
			{
				OFFSET 0.000000 -0.000002 9.814751
				CHANNELS 3 Xrotation Yrotation Zrotation
				JOINT Neck
				{
					OFFSET 0.000000 -1.201384 25.198601
					CHANNELS 3 Xrotation Yrotation Zrotation
					JOINT Head
					{
						OFFSET 0.000000 -0.000001 7.613144
						CHANNELS 3 Xrotation Yrotation Zrotation
						End Site
						{
							OFFSET 0.000000 6.077327 18.428101
						}
					}
				}
				JOINT RightShoulder
				{
					OFFSET -4.132698 0.575449 10.599205
					CHANNELS 3 Xrotation Yrotation Zrotation
					JOINT RightArm
					{
						OFFSET 0.000000 -0.000002 13.901794
						CHANNELS 3 Xrotation Yrotation Zrotation
						JOINT RightArmRoll
						{
							OFFSET 0.000000 -0.000001 7.017883
							CHANNELS 3 Xrotation Yrotation Zrotation
							JOINT RightForeArm
							{
								OFFSET 0.000000 -0.000003 20.440598
								CHANNELS 3 Xrotation Yrotation Zrotation
								JOINT RightForeArmRoll
								{
									OFFSET 0.000000 -0.000001 7.875153
									CHANNELS 3 Xrotation Yrotation Zrotation
									JOINT RightHand
									{
										OFFSET 0.000000 -0.000003 15.803696
										CHANNELS 3 Xrotation Yrotation Zrotation
										End Site
										{
											OFFSET 0.000000 0.000000 0.100006
										}
									}
								}
							}
						}
					}
				}
				JOINT LeftShoulder
				{
					OFFSET 4.132698 0.575449 10.599205
					CHANNELS 3 Xrotation Yrotation Zrotation
					JOINT LeftArm
					{
						OFFSET 0.000000 -0.000002 13.901794
						CHANNELS 3 Xrotation Yrotation Zrotation
						JOINT LeftArmRoll
						{
							OFFSET 0.000000 -0.000001 7.017883
							CHANNELS 3 Xrotation Yrotation Zrotation
							JOINT LeftForeArm
							{
								OFFSET 0.000000 -0.000003 20.440598
								CHANNELS 3 Xrotation Yrotation Zrotation
								JOINT LeftForeArmRoll
								{
									OFFSET 0.000000 -0.000001 7.875153
									CHANNELS 3 Xrotation Yrotation Zrotation
									JOINT LeftHand
									{
										OFFSET 0.000000 -0.000003 15.803696
										CHANNELS 3 Xrotation Yrotation Zrotation
										End Site
										{
											OFFSET 0.000000 0.000000 0.100006
										}
									}
								}
							}
						}
					}
				}
			}
		}
	}
	JOINT RightUpLeg
	{
		OFFSET -7.060478 1.086090 -1.294701
		CHANNELS 3 Xrotation Yrotation Zrotation
		JOINT RightUpLegRoll
		{
			OFFSET 0.000000 -0.000003 18.530800
			CHANNELS 3 Xrotation Yrotation Zrotation
			JOINT RightLeg
			{
				OFFSET 0.000000 0.000004 -22.947601
				CHANNELS 3 Xrotation Yrotation Zrotation
				JOINT RightLegRoll
				{
					OFFSET 0.000000 -0.000004 23.022598
					CHANNELS 3 Xrotation Yrotation Zrotation
					JOINT RightFoot
					{
						OFFSET 0.000000 -0.000003 19.162506
						CHANNELS 3 Xrotation Yrotation Zrotation
						JOINT RightToeBase
						{
							OFFSET 0.000000 -0.000003 16.018799
							CHANNELS 3 Xrotation Yrotation Zrotation
							End Site
							{
								OFFSET 0.006790 0.894205 7.757828
							}
						}
					}
				}
			}
		}
	}
	JOINT LeftUpLeg
	{
		OFFSET 7.060478 1.086090 -1.294701
		CHANNELS 3 Xrotation Yrotation Zrotation
		JOINT LeftUpLegRoll
		{
			OFFSET 0.000000 -0.000003 18.530899
			CHANNELS 3 Xrotation Yrotation Zrotation
			JOINT LeftLeg
			{
				OFFSET 0.000000 -0.000004 22.947502
				CHANNELS 3 Xrotation Yrotation Zrotation
				JOINT LeftLegRoll
				{
					OFFSET 0.000000 -0.000004 23.235504
					CHANNELS 3 Xrotation Yrotation Zrotation
					JOINT LeftFoot
					{
						OFFSET 0.000000 -0.000003 18.949600
						CHANNELS 3 Xrotation Yrotation Zrotation
						JOINT LeftToeBase
						{
							OFFSET 0.000000 -0.000003 16.018799
							CHANNELS 3 Xrotation Yrotation Zrotation
							End Site
							{
								OFFSET -0.030430 0.894206 7.757812
							}
						}
					}
				}
			}
		}
	}
}
MOTION
Frames: 10
Frame Time: 0.041667
55.797802 -6.632081 119.186996 -0.198819 -2.226717 1.893675 -0.524585 -0.354348 -0.251934 2.952134 -0.719844 -0.503574 4.597232 -0.725825 -0.494912 -9.601631 7.418835 -2.743393 17.899573 -8.498201 -2.447745 -16.050391 -65.016120 -19.073571 -29.849385 -106.599835 -43.964206 0.000000 -0.000011 0.000004 60.707329 -8.739280 2.147901 -0.000008 0.000009 -3.000000 -5.000222 -7.998797 0.000143 -1.790046 52.726526 1.403300 -14.013762 114.056892 35.149492 -0.000003 -0.000014 -0.000002 84.457092 2.778282 3.779121 0.000001 -0.000008 2.999998 -5.000215 7.998914 -0.000131 -3.621119 -174.878196 2.735103 -179.999991 0.000005 -1.239005 168.343563 -0.106757 -0.701022 0.000003 0.000003 0.004513 66.608695 6.955029 2.129064 25.456861 -7.355620 -0.000013 -10.500886 175.202330 -0.578536 -0.000020 -0.000003 -1.115720 -22.009465 1.444877 0.899876 -0.000004 0.000001 -0.351195 69.715358 -6.889111 -2.087928 25.456854 7.355619 0.000012 
55.772102 -6.619030 118.941994 -0.204470 -2.239766 1.871868 -0.529367 -0.354147 -0.248359 2.942583 -0.718761 -0.496461 4.587680 -0.724656 -0.487812 -9.431682 7.673387 -2.736203 17.699139 -8.806673 -2.423180 -15.905914 -64.959627 -18.906964 -29.608962 -106.694173 -43.584240 0.000000 -0.000011 0.000003 60.649819 -8.717907 2.134635 -0.000008 0.000008 -3.000000 -5.000222 -7.998795 0.000145 -1.807771 52.827675 1.437193 -14.025799 113.958988 35.068848 -0.000004 -0.000014 0.000000 84.339668 2.801769 3.741635 0.000001 -0.000006 3.000002 -5.000215 7.998913 -0.000131 -3.623928 -174.862227 2.744593 -179.999991 0.000005 -1.240002 168.285575 -0.100849 -0.702915 0.000004 0.000003 0.005812 66.616310 6.955312 2.127739 25.456861 -7.355621 -0.000013 -10.495507 175.199297 -0.578442 -0.000019 -0.000004 -1.117379 -22.067443 1.431401 0.899326 -0.000003 0.000001 -0.352261 69.709662 -6.889798 -2.086607 25.456861 7.355619 0.000013 
55.775105 -6.597998 118.753998 -0.211083 -2.253775 1.850308 -0.533887 -0.353998 -0.244758 2.933571 -0.717652 -0.489292 4.578669 -0.723461 -0.480658 -9.252517 7.941962 -2.729757 17.483566 -9.133110 -2.399265 -15.756765 -64.902636 -18.734927 -29.363888 -106.783150 -43.204635 0.000000 -0.000011 0.000004 60.602643 -8.693895 2.119927 -0.000007 0.000007 -2.999999 -5.000225 -7.998791 0.000146 -1.820371 52.933488 1.465370 -14.037231 113.855927 34.982217 -0.000004 -0.000017 -0.000001 84.229565 2.823035 3.706306 0.000001 -0.000008 3.000001 -5.000212 7.998916 -0.000130 -3.625819 -174.846286 2.755096 -179.999991 0.000005 -1.240999 168.227477 -0.095933 -0.704988 0.000004 0.000003 0.007169 66.624752 6.955614 2.126366 25.456861 -7.355621 -0.000013 -10.487615 175.197194 -0.579669 -0.000020 -0.000004 -1.119070 -22.122547 1.419763 0.898949 -0.000003 0.000002 -0.353220 69.702791 -6.890478 -2.085356 25.456856 7.355618 0.000013 
55.790405 -6.598537 118.500000 -0.218677 -2.268644 1.829123 -0.538030 -0.353854 -0.241147 2.925310 -0.716450 -0.482101 4.570405 -0.722174 -0.473482 -9.068542 8.220053 -2.724540 17.258017 -9.471840 -2.376968 -15.605119 -64.845816 -18.559967 -29.118237 -106.866362 -42.829719 0.000000 -0.000011 0.000004 60.565377 -8.667650 2.104130 -0.000010 0.000008 -3.000000 -5.000221 -7.998793 0.000144 -1.829068 53.042569 1.489137 -14.047459 113.750694 34.890662 -0.000004 -0.000016 -0.000002 84.125575 2.842622 3.672781 0.000001 -0.000007 2.999998 -5.000212 7.998912 -0.000133 -3.626825 -174.828309 2.766433 -179.999991 0.000005 -1.242993 168.169066 -0.090043 -0.706862 0.000004 0.000003 0.008578 66.634021 6.955817 2.125022 25.456861 -7.355622 -0.000012 -10.477811 175.195090 -0.581848 -0.000021 -0.000004 -1.120790 -22.175666 1.409651 0.898744 -0.000004 0.000002 -0.354098 69.694970 -6.891193 -2.084269 25.456854 7.355619 0.000014 
55.796803 -6.608761 118.304001 -0.227263 -2.284233 1.808422 -0.541700 -0.353666 -0.237544 2.917998 -0.715090 -0.474922 4.563094 -0.720728 -0.466320 -8.884135 8.503144 -2.720893 17.027376 -9.817190 -2.357121 -15.453102 -64.789761 -18.384533 -28.872801 -106.945053 -42.460537 0.000000 -0.000010 0.000003 60.537585 -8.639534 2.087413 -0.000005 0.000008 -3.000001 -5.000227 -7.998795 0.000144 -1.835064 53.153594 1.509789 -14.058144 113.642436 34.797789 -0.000004 -0.000017 -0.000002 84.026845 2.860850 3.640588 0.000001 -0.000007 2.999999 -5.000214 7.998917 -0.000132 -3.626975 -174.809348 2.778592 -179.999991 0.000005 -1.244005 168.110080 -0.085131 -0.709927 0.000003 0.000003 0.010037 66.643720 6.956068 2.123661 25.456860 -7.355621 -0.000012 -10.466288 175.193929 -0.584974 -0.000020 -0.000003 -1.122540 -22.227594 1.400770 0.898711 -0.000003 0.000001 -0.354920 69.686617 -6.891888 -2.083114 25.456856 7.355619 0.000014 
55.766006 -6.588013 118.046997 -0.236864 -2.300460 1.788362 -0.544788 -0.353389 -0.233965 2.911848 -0.713506 -0.467788 4.556943 -0.719059 -0.459205 -8.703700 8.786710 -2.719003 16.796400 -10.163542 -2.340341 -15.302752 -64.735051 -18.211016 -28.633181 -107.017904 -42.102994 0.000000 -0.000011 0.000003 60.518652 -8.609901 2.070020 -0.000009 0.000009 -2.999999 -5.000227 -7.998795 0.000144 -1.839585 53.264834 1.528640 -14.068782 113.534143 34.704843 -0.000004 -0.000020 0.000000 83.932240 2.878201 3.609778 0.000001 -0.000009 3.000002 -5.000213 7.998911 -0.000131 -3.626300 -174.790388 2.791596 -179.999991 0.000005 -1.245999 168.050384 -0.080221 -0.711972 0.000003 0.000003 0.011541 66.653924 6.956263 2.122254 25.456861 -7.355622 -0.000013 -10.453663 175.192740 -0.588659 -0.000019 -0.000004 -1.124310 -22.279338 1.392831 0.898861 -0.000002 0.000001 -0.355712 69.677745 -6.892593 -2.082091 25.456856 7.355619 0.000013 
55.807705 -6.562080 117.824989 -0.247495 -2.317188 1.769053 -0.547190 -0.352980 -0.230428 2.907055 -0.711632 -0.460731 4.552161 -0.717100 -0.452172 -8.531628 9.066197 -2.718930 16.570244 -10.505111 -2.326980 -15.156250 -64.682520 -18.041914 -28.401639 -107.085284 -41.759647 0.000000 -0.000011 0.000004 60.508113 -8.579058 2.051934 -0.000007 0.000009 -2.999998 -5.000223 -7.998794 0.000145 -1.843897 53.375193 1.547050 -14.079907 113.426909 34.614118 -0.000003 -0.000016 -0.000001 83.840818 2.895092 3.579694 -0.000000 -0.000006 3.000002 -5.000212 7.998915 -0.000133 -3.624844 -174.769432 2.805246 -179.999991 0.000005 -1.246996 167.989691 -0.075313 -0.714022 0.000004 0.000003 0.013088 66.664340 6.956482 2.120939 25.456858 -7.355621 -0.000012 -10.440315 175.192549 -0.592917 -0.000020 -0.000004 -1.126120 -22.331479 1.385530 0.899180 -0.000002 0.000002 -0.356499 69.668749 -6.893260 -2.081071 25.456853 7.355619 0.000014 
55.800804 -6.566043 117.570000 -0.259167 -2.334306 1.750633 -0.548804 -0.352387 -0.226949 2.903854 -0.709401 -0.453786 4.548958 -0.714787 -0.445253 -8.372327 9.337062 -2.720572 16.353667 -10.836195 -2.317238 -15.015493 -64.632653 -17.879441 -28.183575 -107.145806 -41.436336 0.000000 -0.000011 0.000002 60.505456 -8.547481 2.033676 -0.000005 0.000008 -3.000001 -5.000225 -7.998794 0.000144 -1.849238 53.483024 1.566353 -14.092706 113.320836 34.528707 -0.000004 -0.000016 -0.000001 83.751582 2.911933 3.550074 0.000001 -0.000006 3.000000 -5.000215 7.998914 -0.000131 -3.622633 -174.748450 2.819606 -179.999991 0.000005 -1.249004 167.927782 -0.070407 -0.716063 0.000004 0.000003 0.014674 66.674852 6.956668 2.119512 25.456863 -7.355620 -0.000012 -10.426666 175.192330 -0.597370 -0.000021 -0.000004 -1.127940 -22.385028 1.378571 0.899672 -0.000004 0.000002 -0.357307 69.659774 -6.893957 -2.080056 25.456856 7.355619 0.000013 
55.836304 -6.522672 117.337990 -0.271899 -2.351715 1.733232 -0.549529 -0.351566 -0.223547 2.902432 -0.706748 -0.446986 4.547535 -0.712052 -0.438486 -8.230235 9.594749 -2.723709 16.151524 -11.150960 -2.311115 -14.882654 -64.586276 -17.726098 -27.978207 -107.201595 -41.132270 0.000000 -0.000011 0.000003 60.510128 -8.515434 2.015126 -0.000011 0.000007 -3.000001 -5.000223 -7.998794 0.000145 -1.856868 53.586925 1.587914 -14.107237 113.217967 34.450371 -0.000003 -0.000020 0.000001 83.663499 2.929188 3.520771 0.000001 -0.000008 3.000002 -5.000214 7.998911 -0.000132 -3.619685 -174.727481 2.834637 -179.999991 0.000005 -1.250002 167.864589 -0.066477 -0.719287 0.000004 0.000003 0.016294 66.685268 6.956839 2.118286 25.456858 -7.355621 -0.000013 -10.413207 175.193109 -0.602001 -0.000020 -0.000004 -1.129790 -22.440677 1.371650 0.900324 -0.000003 0.000001 -0.358161 69.651093 -6.894633 -2.079016 25.456858 7.355619 0.000013 
55.813210 -6.516722 117.072998 -0.285708 -2.369281 1.716988 -0.549258 -0.350470 -0.220238 2.903000 -0.703603 -0.440363 4.548101 -0.708829 -0.431902 -8.109763 9.834716 -2.728008 15.968883 -11.443711 -2.308374 -14.759624 -64.544024 -17.584107 -27.793882 -107.249468 -40.856392 0.000000 -0.000010 0.000004 60.521616 -8.483385 1.996715 -0.000007 0.000008 -2.999999 -5.000224 -7.998792 0.000146 -1.868069 53.685471 1.613116 -14.124644 113.118410 34.382073 -0.000003 -0.000016 -0.000000 83.575540 2.947292 3.491445 0.000001 -0.000006 2.999998 -5.000213 7.998912 -0.000131 -3.616053 -174.706499 2.850251 -179.999991 0.000005 -1.251996 167.799689 -0.062548 -0.721523 0.000003 0.000003 0.017947 66.695575 6.956998 2.116966 25.456860 -7.355621 -0.000013 -10.400350 175.193901 -0.606447 -0.000020 -0.000003 -1.131660 -22.499425 1.364472 0.901136 -0.000004 0.000001 -0.359087 69.642945 -6.895292 -2.077942 25.456861 7.355618 0.000013 
